<svg version="1" xmlns="http://www.w3.org/2000/svg" width="346.667" height="346.667" viewBox="0 0 260.000000 260.000000"><path d="M213.7 17.5c-17.2 6.1-25.3 24.9-17.6 41.1 1.3 2.7 2.2 5.7 2.1 6.6-.1.9-2.2 6-4.7 11.3-2.5 5.3-4.5 9.8-4.5 9.9 0 .2-2.2 5.2-5 11-2.7 5.8-5 10.8-5 11 0 .2-2.2 5-4.8 10.7-2.7 5.7-5.4 11.8-6.1 13.5-1 2.6-2 3.3-5.3 3.8-2.2.4-5.3 1.3-6.9 2.2-3 1.5-3.1 1.4-19.6-8.8l-16.6-10.3-1.4-5.5c-2.7-10.5-8.1-17.1-17.8-21.6-4.1-1.9-6.3-2.3-12.5-2-16.1.6-27.5 11.8-28.7 28-.4 5.1-.1 7.4 2.1 12.6l2.5 6.4-7.3 14c-4 7.8-9.5 18.2-12 23.2l-4.7 9.1-5.2.6c-20.7 2.5-32.5 24.4-23.2 43.2 8.9 18.2 33.4 22 47.6 7.4 8-8.2 10.7-18.8 7.4-29.5l-1.4-4.8 5.6-11.1c3-6 5.9-11.5 6.3-12 .4-.6 3.7-6.9 7.4-14l6.7-13 7.2-2.2 7.2-2.2 16 9.9 15.9 9.8 1.3 5.8c4.6 20 24.6 29.8 42.7 21 13.5-6.6 20.5-25.1 14.2-37.8-2.3-4.5-2.1-5.7 2.5-15.5 2.3-4.8 7-15.3 10.6-23.3 3.5-8 7.7-17.2 9.3-20.5 1.6-3.3 4.2-9 5.8-12.7 2.7-5.9 3.4-6.8 6.7-7.7 5.5-1.5 12-5.7 15.3-9.8 5.5-7 6.6-10.2 6.7-18.8 0-6.8-.4-8.9-2.8-13.7-3-6.2-7.5-10.6-14-13.9-5.1-2.7-16.5-3.4-22-1.4z"/></svg>